<svg id="Capa_1" data-name="Capa 1" xmlns="http://www.w3.org/2000/svg" viewBox="0 0 400 400">
  <g>
    <path d="M340.78,116.24A84.3,84.3,0,0,0,233,66.34l-.62.22a84.18,84.18,0,0,0-49.65,49.71c-7.86,10.79-15.93,19.76-24.2,25.26a36.61,36.61,0,1,1-13.07-66.38l1.27.26a16,16,0,0,0,18.76-12.49l3.12-15.5a16,16,0,0,0-12.47-18.78l-1.28-.26A84.32,84.32,0,1,0,185,181.24l.79-.54a15.93,15.93,0,0,0,17.91,4.85l14.82-5.5a16,16,0,0,0,9.4-20.48l-.45-1.23a36.61,36.61,0,0,1,52.36-44.6A36.6,36.6,0,0,1,295,160.85C279.75,194.16,217.65,232,189.42,262l101.64-37.33a84.33,84.33,0,0,0,49.72-108.41Z" style="fill: #153c67"/>
    <path d="M159.58,365.58a84.33,84.33,0,0,1,5.81-155.71L267,172.55c-28.23,29.95-90.33,67.82-105.6,101.12A36.61,36.61,0,1,0,229,276.18l-.46-1.22a16,16,0,0,1,9.4-20.48L252.81,249a15.93,15.93,0,0,1,20.49,9.37l.46,1.22a84.33,84.33,0,0,1-114.18,106" style="fill: #153c67;fill-rule: evenodd"/>
    <path d="M156.11,300.62a63.38,63.38,0,0,1,3-19.48,36.69,36.69,0,0,1,2.51-7.47c15.27-33.3,77.37-71.17,105.6-101.12L165.63,209.87a84.31,84.31,0,1,0,72.19,151.66,63.58,63.58,0,0,1-81.71-60.91Z" style="fill: #00a099"/>
    <path d="M300.58,133.9a63.34,63.34,0,0,1-3.05,19.48,36.48,36.48,0,0,1-2.51,7.47C279.75,194.16,217.65,232,189.42,262l101.64-37.33A84.31,84.31,0,1,0,218.87,73a63.58,63.58,0,0,1,81.71,60.91Z" style="fill: #00a099"/>
  </g>
</svg>
